<svg xmlns="http://www.w3.org/2000/svg" xmlns:xlink="http://www.w3.org/1999/xlink" width="1080" zoomAndPan="magnify" viewBox="0 0 810 817.92" height="1080" preserveAspectRatio="xMidYMid meet" version="1.0"><defs><clipPath id="1ed106530d"><path d="M 0.0390625 0 L 809.960938 0 L 809.960938 809.921875 L 0.0390625 809.921875 Z M 0.0390625 0 " clip-rule="nonzero"/></clipPath><clipPath id="23d148bb69"><path d="M 87 85.445312 L 722 85.445312 L 722 721 L 87 721 Z M 87 85.445312 " clip-rule="nonzero"/></clipPath></defs><g clip-path="url(#1ed106530d)"><path fill="#ffffff" d="M 0.0390625 0 L 809.960938 0 L 809.960938 809.921875 L 0.0390625 809.921875 Z M 0.0390625 0 " fill-opacity="1" fill-rule="nonzero"/><path fill="#ffffff" d="M 0.0390625 0 L 809.960938 0 L 809.960938 809.921875 L 0.0390625 809.921875 Z M 0.0390625 0 " fill-opacity="1" fill-rule="nonzero"/></g><path fill="#702963" d="M 453.46875 234.644531 C 453.242188 254.542969 440.839844 273.605469 421.949219 280.347656 C 401.988281 287.476562 380.328125 281.78125 366.699219 265.4375 C 353.789062 249.960938 352.402344 226.804688 362.820312 209.460938 C 373.152344 192.242188 394.148438 182.628906 413.804688 186.652344 C 436.902344 191.378906 453.203125 211.285156 453.46875 234.644531 C 453.621094 248.183594 474.671875 248.21875 474.519531 234.644531 C 474.1875 205.105469 455.785156 179.148438 428.152344 168.859375 C 401.292969 158.855469 369.054688 167.71875 351.007812 189.941406 C 332.539062 212.679688 329.386719 245.085938 344.640625 270.457031 C 359.933594 295.902344 389.773438 308.65625 418.757812 303.0625 C 451.101562 296.820312 474.15625 267.101562 474.519531 234.644531 C 474.671875 221.09375 453.621094 221.082031 453.46875 234.644531 " fill-opacity="1" fill-rule="nonzero"/><path fill="#702963" d="M 404.648438 508.289062 C 375.109375 508.621094 349.148438 527.027344 338.859375 554.65625 C 328.859375 581.519531 337.71875 613.757812 359.941406 631.800781 C 382.679688 650.269531 415.089844 653.421875 440.457031 638.167969 C 465.90625 622.875 478.65625 593.035156 473.0625 564.050781 C 466.820312 531.707031 437.101562 508.65625 404.648438 508.289062 C 391.097656 508.136719 391.085938 529.1875 404.648438 529.339844 C 424.542969 529.566406 443.605469 541.96875 450.351562 560.859375 C 457.476562 580.820312 451.78125 602.480469 435.441406 616.109375 C 419.960938 629.019531 396.808594 630.40625 379.460938 619.988281 C 362.242188 609.660156 352.632812 588.664062 356.652344 569.003906 C 361.378906 545.90625 381.292969 529.605469 404.648438 529.339844 C 418.183594 529.1875 418.21875 508.136719 404.648438 508.289062 " fill-opacity="1" fill-rule="nonzero"/><g clip-path="url(#23d148bb69)"><path fill="#702963" d="M 404.648438 85.460938 C 339.113281 85.605469 274.140625 105.929688 220.800781 144.152344 C 168.605469 181.546875 128.53125 233.898438 106.378906 294.199219 C 83.527344 356.417969 81.1875 426.027344 99.304688 489.753906 C 116.757812 551.117188 153.152344 606.90625 202.441406 647.433594 C 252.910156 688.929688 314.925781 714.101562 380.085938 719.265625 C 445.855469 724.472656 512.882812 708.5625 569.25 674.265625 C 623.3125 641.371094 667.40625 592.140625 693.496094 534.425781 C 721.101562 473.355469 728.847656 404.734375 715.585938 339.015625 C 702.914062 276.210938 670.347656 217.75 624.046875 173.515625 C 577.742188 129.265625 518.078125 99.25 454.714844 89.453125 C 438.132812 86.890625 421.429688 85.496094 404.648438 85.460938 C 391.097656 85.433594 391.082031 106.484375 404.648438 106.515625 C 466.324219 106.648438 526.382812 125.761719 576.824219 161.589844 C 624.949219 195.765625 662.921875 245.5 683.054688 301.015625 C 704.363281 359.769531 706.746094 424.152344 689.6875 484.15625 C 673.277344 541.859375 639.234375 593.351562 592.949219 631.734375 C 546.707031 670.078125 487.773438 693.824219 427.851562 698.316406 C 366.015625 702.953125 304.199219 688.5 251.21875 656.421875 C 200.152344 625.507812 159.40625 579.441406 134.507812 524.976562 C 108.960938 469.089844 101.847656 404.183594 114.136719 343.964844 C 126.261719 284.558594 156.355469 230.21875 200.128906 188.402344 C 243.792969 146.675781 299.625 119.253906 359.515625 109.859375 C 374.03125 107.582031 389.535156 106.546875 404.648438 106.515625 C 418.191406 106.484375 418.214844 85.433594 404.648438 85.460938 " fill-opacity="1" fill-rule="nonzero"/></g><path fill="#702963" d="M 504.679688 123.726562 C 506.199219 125.390625 507.6875 127.085938 509.140625 128.804688 C 510.070312 129.914062 510.988281 131.027344 511.890625 132.148438 C 512.441406 132.832031 512.980469 133.519531 513.523438 134.210938 C 514.433594 135.375 512.429688 132.765625 513.347656 133.992188 C 513.683594 134.4375 514.023438 134.882812 514.359375 135.332031 C 520.246094 143.21875 525.542969 151.546875 530.140625 160.25 C 542.09375 182.867188 548.648438 208.6875 546.40625 234.78125 C 545.195312 248.78125 541.136719 262.785156 535.035156 275.433594 C 530.144531 285.574219 523.042969 296.585938 516.871094 304.636719 C 512.890625 309.828125 506.972656 317.0625 501.609375 322.515625 C 498.953125 325.214844 496.175781 327.792969 493.289062 330.242188 C 491.859375 331.457031 490.398438 332.636719 488.925781 333.792969 C 487.996094 334.527344 489.34375 333.472656 489.421875 333.414062 C 488.972656 333.753906 488.527344 334.097656 488.078125 334.429688 C 487.152344 335.113281 486.226562 335.796875 485.292969 336.46875 C 465.21875 350.933594 443.507812 363.21875 422.566406 376.363281 C 397.667969 391.984375 372.609375 407.445312 348.375 424.097656 C 333.359375 434.417969 318.1875 445.257812 305.613281 458.546875 C 289.910156 475.144531 275.378906 493.550781 264.957031 513.941406 C 239.746094 563.257812 237.800781 625.035156 261.949219 675.140625 C 263.390625 678.140625 264.949219 681.082031 266.601562 683.964844 C 273.332031 695.722656 291.527344 685.128906 284.777344 673.339844 C 283.058594 670.332031 281.445312 667.265625 279.949219 664.140625 C 279.519531 663.246094 279.097656 662.339844 278.6875 661.4375 C 278.488281 660.996094 277.375 658.453125 277.757812 659.359375 C 278.128906 660.226562 276.984375 657.441406 276.835938 657.0625 C 276.339844 655.796875 275.859375 654.53125 275.398438 653.257812 C 271.605469 642.8125 268.804688 631.730469 267.367188 620.824219 C 263.449219 591.160156 267.261719 559.160156 279.640625 531.808594 C 289.402344 510.25 302.898438 492.761719 318.492188 475.605469 C 323.730469 469.84375 329.46875 464.582031 335.476562 459.636719 C 337.140625 458.265625 338.824219 456.925781 340.523438 455.597656 C 339.167969 456.65625 341.023438 455.214844 341.460938 454.878906 C 342.527344 454.070312 343.59375 453.269531 344.671875 452.472656 C 348.910156 449.328125 353.210938 446.273438 357.554688 443.273438 C 381.691406 426.582031 406.71875 411.167969 431.5625 395.5625 C 452.796875 382.230469 474.78125 369.746094 495.199219 355.164062 C 508.800781 345.449219 520.121094 334.261719 530.460938 321.171875 C 547.105469 300.113281 560.496094 276.464844 565.429688 249.78125 C 574.574219 200.351562 555.605469 151.234375 523.832031 113.6875 C 522.4375 112.046875 521.015625 110.429688 519.566406 108.84375 C 510.414062 98.808594 495.5625 113.730469 504.679688 123.726562 " fill-opacity="1" fill-rule="nonzero"/><path fill="#702963" d="M 438.625 603.082031 C 422.257812 603.128906 406.605469 596.449219 395.523438 584.332031 C 384.425781 572.195312 379.921875 555.628906 381.414062 539.472656 C 381.96875 533.457031 375.886719 528.304688 370.246094 528.304688 C 363.746094 528.304688 359.636719 533.441406 359.078125 539.472656 C 357.046875 561.457031 364.867188 583.871094 379.730469 600.125 C 394.628906 616.414062 416.675781 625.476562 438.625 625.414062 C 452.996094 625.375 453.019531 603.039062 438.625 603.082031 " fill-opacity="1" fill-rule="nonzero"/><path fill="#702963" d="M 393.414062 526.386719 C 393.632812 559.242188 421.570312 586.300781 454.699219 583.988281 C 460.714844 583.566406 465.867188 579.152344 465.867188 572.820312 C 465.867188 567.101562 460.746094 561.230469 454.699219 561.652344 C 433.726562 563.117188 415.894531 547.789062 415.753906 526.386719 C 415.65625 512.019531 393.320312 511.992188 393.414062 526.386719 " fill-opacity="1" fill-rule="nonzero"/><path fill="#702963" d="M 523.992188 234.953125 C 524.742188 183.515625 503.355469 132.609375 466.015625 97.214844 C 455.585938 87.324219 439.765625 103.09375 450.222656 113.007812 C 483.464844 144.519531 502.328125 189.140625 501.660156 234.953125 C 501.449219 249.332031 523.78125 249.332031 523.992188 234.953125 " fill-opacity="1" fill-rule="nonzero"/><path fill="#702963" d="M 504.972656 288.105469 C 505.621094 287.453125 506.273438 286.800781 506.925781 286.152344 C 508.015625 285.136719 508.785156 283.941406 509.234375 282.554688 C 509.933594 281.226562 510.253906 279.792969 510.195312 278.253906 C 510.253906 276.71875 509.933594 275.285156 509.234375 273.953125 C 508.785156 272.566406 508.015625 271.371094 506.925781 270.359375 C 506.171875 269.773438 505.421875 269.195312 504.664062 268.609375 C 502.921875 267.601562 501.042969 267.09375 499.03125 267.085938 C 498.039062 267.21875 497.050781 267.351562 496.0625 267.484375 C 494.167969 268.015625 492.527344 268.972656 491.132812 270.359375 C 490.480469 271.007812 489.828125 271.660156 489.179688 272.3125 C 488.089844 273.324219 487.316406 274.519531 486.871094 275.90625 C 486.171875 277.238281 485.847656 278.671875 485.90625 280.207031 C 485.847656 281.746094 486.171875 283.179688 486.871094 284.507812 C 487.316406 285.894531 488.089844 287.089844 489.179688 288.105469 C 489.929688 288.6875 490.6875 289.269531 491.4375 289.847656 C 493.183594 290.859375 495.058594 291.367188 497.078125 291.375 C 498.066406 291.242188 499.054688 291.109375 500.046875 290.976562 C 501.9375 290.445312 503.578125 289.488281 504.972656 288.105469 " fill-opacity="1" fill-rule="nonzero"/><path fill="#702963" d="M 465.824219 320.675781 C 480.195312 320.675781 480.21875 298.339844 465.824219 298.339844 C 451.449219 298.339844 451.425781 320.675781 465.824219 320.675781 " fill-opacity="1" fill-rule="nonzero"/><path fill="#702963" d="M 425.773438 320.671875 C 375.371094 341.070312 329.167969 370.921875 290.46875 409.21875 C 251.753906 447.535156 219.601562 494.804688 206.855469 548.355469 C 199.273438 580.214844 198.558594 613.523438 206.351562 645.40625 C 209.769531 659.359375 231.3125 653.453125 227.894531 639.464844 C 202.621094 536.105469 276.835938 438.171875 357.394531 382.519531 C 380.601562 366.488281 405.5625 352.789062 431.710938 342.207031 C 437.300781 339.949219 441.246094 334.769531 439.511719 328.46875 C 438.054688 323.171875 431.398438 318.394531 425.773438 320.671875 " fill-opacity="1" fill-rule="nonzero"/><path fill="#702963" d="M 199.734375 459.625 C 172.601562 500.375 158.5625 549.417969 158.957031 598.304688 C 159.074219 612.667969 181.40625 612.703125 181.292969 598.304688 C 180.925781 553.089844 193.941406 508.558594 219.019531 470.898438 C 222.363281 465.875 220.003906 458.535156 215.011719 455.617188 C 209.539062 452.414062 203.085938 454.589844 199.734375 459.625 " fill-opacity="1" fill-rule="nonzero"/><path fill="#702963" d="M 237.289062 438.847656 C 251.660156 438.847656 251.683594 416.511719 237.289062 416.511719 C 222.914062 416.511719 222.890625 438.847656 237.289062 438.847656 " fill-opacity="1" fill-rule="nonzero"/><path fill="#702963" d="M 391.3125 284.246094 C 339.007812 309.230469 291.738281 344.691406 253.046875 387.855469 C 249.023438 392.34375 248.621094 399.21875 253.046875 403.648438 C 257.140625 407.738281 264.800781 408.15625 268.839844 403.648438 C 306.40625 361.734375 351.804688 327.789062 402.585938 303.535156 C 408.027344 300.933594 409.453125 293.148438 406.59375 288.25 C 403.339844 282.6875 396.777344 281.636719 391.3125 284.246094 " fill-opacity="1" fill-rule="nonzero"/><path fill="#702963" d="M 474.671875 226.519531 C 470.46875 172.527344 443.371094 123.0625 400.570312 90.035156 C 395.792969 86.34375 388.058594 89.304688 385.289062 94.039062 C 381.917969 99.804688 384.503906 105.621094 389.296875 109.320312 C 425.316406 137.117188 448.8125 181.242188 452.335938 226.519531 C 452.804688 232.53125 457.132812 237.6875 463.503906 237.6875 C 469.183594 237.6875 475.140625 232.566406 474.671875 226.519531 " fill-opacity="1" fill-rule="nonzero"/><path fill="#702963" d="M 351.964844 261.871094 C 261.332031 295.324219 185.460938 365.257812 143.925781 452.453125 C 132.164062 477.148438 123.019531 503.039062 117.089844 529.753906 C 115.785156 535.636719 118.871094 541.835938 124.890625 543.488281 C 130.492188 545.027344 137.316406 541.601562 138.628906 535.691406 C 158.308594 446.988281 214.117188 367.585938 290.089844 317.820312 C 311.355469 303.894531 334.089844 292.195312 357.902344 283.40625 C 363.554688 281.320312 367.398438 275.835938 365.703125 269.667969 C 364.203125 264.226562 357.648438 259.773438 351.964844 261.871094 " fill-opacity="1" fill-rule="nonzero"/><path fill="#702963" d="M 397.769531 177.75 C 401.066406 159.96875 387.664062 147.035156 376.519531 135.066406 C 365.683594 123.429688 354.082031 112.550781 341.847656 102.398438 C 337.210938 98.550781 330.601562 97.855469 326.058594 102.398438 C 322.09375 106.363281 321.390625 114.320312 326.058594 118.191406 C 336.441406 126.8125 346.378906 135.949219 355.773438 145.640625 C 360.363281 150.378906 364.820312 155.238281 369.144531 160.222656 C 371.425781 162.847656 376.9375 167.992188 376.230469 171.808594 C 375.132812 177.734375 377.867188 183.851562 384.035156 185.546875 C 389.464844 187.042969 396.660156 183.707031 397.769531 177.75 " fill-opacity="1" fill-rule="nonzero"/><path fill="#702963" d="M 115.230469 462.878906 C 126.773438 432.144531 142.121094 402.824219 161.328125 376.171875 C 167.703125 367.324219 174.273438 359.164062 182.207031 350.335938 C 192.433594 338.957031 202.800781 327.664062 213.609375 316.828125 C 237.480469 292.902344 264.03125 273.277344 294.613281 258.71875 C 317.394531 247.878906 362.234375 231.78125 349.023438 197.824219 C 345.683594 189.226562 339.855469 182.148438 333.910156 175.203125 C 328.867188 169.316406 323.703125 163.5625 318.085938 158.214844 C 304.1875 144.976562 288.277344 133.867188 271.246094 125.042969 C 258.5 118.441406 247.191406 137.710938 259.972656 144.328125 C 274.214844 151.707031 287.585938 160.546875 299.453125 171.363281 C 309.136719 180.1875 319.433594 190.367188 326.1875 201.640625 C 327.863281 204.441406 327.886719 204.28125 328.667969 207.433594 C 329.203125 209.625 328.757812 208.128906 328.730469 207.628906 C 328.773438 208.347656 328.746094 209.054688 328.75 209.777344 C 328.75 209.933594 328.476562 211.621094 328.703125 210.429688 C 328.960938 209.070312 328.28125 211.75 328.203125 212.003906 C 327.558594 214.09375 327.925781 212.628906 328.140625 212.210938 C 327.820312 212.835938 327.46875 213.433594 327.105469 214.039062 C 327.085938 214.070312 326.113281 215.523438 326.742188 214.664062 C 327.453125 213.6875 326.042969 215.480469 325.871094 215.664062 C 323.78125 217.90625 321.640625 219.683594 319.785156 220.917969 C 306.3125 229.925781 290.808594 235.59375 276.375 242.828125 C 246.976562 257.570312 220.988281 277.816406 197.816406 301.039062 C 178.910156 319.980469 160.550781 339.847656 144.609375 361.382812 C 123.019531 390.550781 106.433594 423.011719 93.695312 456.941406 C 91.574219 462.589844 96.054688 469.183594 101.496094 470.679688 C 107.757812 472.398438 113.101562 468.546875 115.230469 462.878906 " fill-opacity="1" fill-rule="nonzero"/><path fill="#702963" d="M 113.484375 350.6875 C 132.941406 318.59375 158.757812 290.171875 189.1875 268.136719 C 205.066406 256.640625 222.046875 247.902344 239.285156 238.71875 C 248.441406 233.84375 257.351562 227.261719 262.351562 217.921875 C 267.320312 208.640625 267.59375 198.371094 264.890625 188.335938 C 262.066406 177.847656 256 169.710938 246.289062 164.824219 C 235.808594 159.546875 225.636719 154.242188 213.851562 152.816406 C 207.847656 152.097656 202.679688 158.46875 202.679688 163.988281 C 202.679688 170.621094 207.832031 174.429688 213.851562 175.15625 C 220.417969 175.949219 228.554688 180.855469 235.015625 184.109375 C 236.574219 184.894531 238.152344 185.617188 239.609375 186.589844 C 238.976562 186.164062 240.410156 187.628906 240.640625 187.964844 C 242.605469 190.820312 243.222656 193.210938 243.957031 196.855469 C 245.109375 202.574219 243.207031 208.40625 237.742188 213.195312 C 231.144531 218.972656 222.304688 222.199219 214.59375 226.203125 C 183.195312 242.515625 154.523438 264.632812 130.652344 290.742188 C 116.964844 305.714844 104.71875 322.066406 94.199219 339.414062 C 86.730469 351.742188 106.035156 362.976562 113.484375 350.6875 " fill-opacity="1" fill-rule="nonzero"/></svg>